<svg id="图层_1" data-name="图层 1" xmlns="http://www.w3.org/2000/svg" xmlns:xlink="http://www.w3.org/1999/xlink" viewBox="0 0 30 30"><defs><linearGradient id="未命名的渐变_156" x1="1.03" y1="0.98" x2="28.97" y2="28.93" gradientUnits="userSpaceOnUse"><stop offset="0.06" stop-color="#666"/><stop offset="0.98" stop-color="#333"/></linearGradient><linearGradient id="未命名的渐变_126" x1="2.72" y1="27.08" x2="27.73" y2="27.08" gradientUnits="userSpaceOnUse"><stop offset="0.12" stop-color="#0384c5"/><stop offset="0.9" stop-color="#0063b1"/></linearGradient><linearGradient id="未命名的渐变_126-2" x1="14.72" y1="14.44" x2="15.72" y2="14.44" xlink:href="#未命名的渐变_126"/><linearGradient id="未命名的渐变_126-3" x1="16.62" y1="19.81" x2="17.62" y2="19.81" xlink:href="#未命名的渐变_126"/><linearGradient id="未命名的渐变_126-4" x1="12.33" y1="19.81" x2="13.33" y2="19.81" xlink:href="#未命名的渐变_126"/><linearGradient id="未命名的渐变_126-5" x1="19.15" y1="24.87" x2="20.15" y2="24.87" xlink:href="#未命名的渐变_126"/><linearGradient id="未命名的渐变_126-6" x1="21.68" y1="27.39" x2="22.68" y2="27.39" xlink:href="#未命名的渐变_126"/><linearGradient id="未命名的渐变_126-7" x1="24.42" y1="28.75" x2="25.42" y2="28.75" xlink:href="#未命名的渐变_126"/><linearGradient id="未命名的渐变_126-8" x1="10.3" y1="24.88" x2="11.3" y2="24.88" xlink:href="#未命名的渐变_126"/><linearGradient id="未命名的渐变_126-9" x1="7.3" y1="26.13" x2="8.3" y2="26.13" xlink:href="#未命名的渐变_126"/><linearGradient id="未命名的渐变_126-10" x1="5.24" y1="27.71" x2="6.24" y2="27.71" xlink:href="#未命名的渐变_126"/></defs><rect y="-0.04" width="30" height="30" rx="3.5" style="fill:#f7f7f7"/><path d="M26.5,1A2.5,2.5,0,0,1,29,3.46v23A2.5,2.5,0,0,1,26.5,29H3.5A2.5,2.5,0,0,1,1,26.46v-23A2.5,2.5,0,0,1,3.5,1h23m0-1H3.5A3.5,3.5,0,0,0,0,3.46v23A3.5,3.5,0,0,0,3.5,30h23a3.5,3.5,0,0,0,3.5-3.5v-23A3.5,3.5,0,0,0,26.5,0Z" style="fill:url(#未命名的渐变_156)"/><polyline points="3.22 29.61 5.1 29.61 5.74 29.61 5.74 28.34 7.8 28.34 7.8 27.08 10.8 27.08 10.8 26.66 12.83 26.66 12.83 24.55 17.12 24.55 17.12 27.08 19.65 27.08 19.65 28.34 22.18 28.34 22.18 29.61 27.23 29.61 27.23 28.75" style="fill:none;stroke-linecap:round;stroke-miterlimit:10;stroke:url(#未命名的渐变_126)"/><line x1="15.22" y1="23.92" x2="15.22" y2="4.96" style="fill:none;stroke-linecap:round;stroke-miterlimit:10;stroke:url(#未命名的渐变_126-2)"/><line x1="17.12" y1="24.55" x2="17.12" y2="15.07" style="fill:none;stroke-linecap:round;stroke-miterlimit:10;stroke:url(#未命名的渐变_126-3)"/><line x1="12.83" y1="24.55" x2="12.83" y2="15.07" style="fill:none;stroke-linecap:round;stroke-miterlimit:10;stroke:url(#未命名的渐变_126-4)"/><line x1="19.65" y1="27.08" x2="19.65" y2="22.65" style="fill:none;stroke-linecap:round;stroke-miterlimit:10;stroke:url(#未命名的渐变_126-5)"/><line x1="22.18" y1="28.34" x2="22.18" y2="26.45" style="fill:none;stroke-linecap:round;stroke-miterlimit:10;stroke:url(#未命名的渐变_126-6)"/><line x1="24.92" y1="29.61" x2="24.92" y2="27.89" style="fill:none;stroke-linecap:round;stroke-miterlimit:10;stroke:url(#未命名的渐变_126-7)"/><line x1="10.8" y1="26.65" x2="10.8" y2="23.11" style="fill:none;stroke-linecap:round;stroke-miterlimit:10;stroke:url(#未命名的渐变_126-8)"/><line x1="7.8" y1="27.08" x2="7.8" y2="25.18" style="fill:none;stroke-linecap:round;stroke-miterlimit:10;stroke:url(#未命名的渐变_126-9)"/><line x1="5.74" y1="28.34" x2="5.74" y2="27.08" style="fill:none;stroke-linecap:round;stroke-miterlimit:10;stroke:url(#未命名的渐变_126-10)"/><path d="M26.5,1A2.5,2.5,0,0,1,29,3.46v23A2.5,2.5,0,0,1,26.5,29H3.5A2.5,2.5,0,0,1,1,26.46v-23A2.5,2.5,0,0,1,3.5,1h23m0-1H3.5A3.5,3.5,0,0,0,0,3.46v23A3.5,3.5,0,0,0,3.5,30h23a3.5,3.5,0,0,0,3.5-3.5v-23A3.5,3.5,0,0,0,26.5,0Z" style="fill:url(#未命名的渐变_156)"/></svg>