<svg id="图层_1" data-name="图层 1" xmlns="http://www.w3.org/2000/svg" xmlns:xlink="http://www.w3.org/1999/xlink" viewBox="0 0 30 30"><defs><linearGradient id="未命名的渐变_156" x1="1.03" y1="0.98" x2="28.97" y2="28.93" gradientUnits="userSpaceOnUse"><stop offset="0.06" stop-color="#666"/><stop offset="0.98" stop-color="#333"/></linearGradient><radialGradient id="未命名的渐变_155" cx="4.99" cy="18.43" r="8.26" gradientUnits="userSpaceOnUse"><stop offset="0" stop-color="#fbebca"/><stop offset="0.97" stop-color="#ffd555"/></radialGradient><linearGradient id="未命名的渐变_126" x1="0.78" y1="10.37" x2="29.44" y2="10.37" gradientUnits="userSpaceOnUse"><stop offset="0.12" stop-color="#0384c5"/><stop offset="0.9" stop-color="#0063b1"/></linearGradient><linearGradient id="未命名的渐变_102" x1="1" y1="18.2" x2="29.41" y2="18.2" gradientUnits="userSpaceOnUse"><stop offset="0.01" stop-color="#379e4e"/><stop offset="1" stop-color="#006837"/></linearGradient></defs><rect y="-0.04" width="30" height="30" rx="3.5" style="fill:#f7f7f7"/><path d="M26.5,1A2.5,2.5,0,0,1,29,3.46v23A2.5,2.5,0,0,1,26.5,29H3.5A2.5,2.5,0,0,1,1,26.46v-23A2.5,2.5,0,0,1,3.5,1h23m0-1H3.5A3.5,3.5,0,0,0,0,3.46v23A3.5,3.5,0,0,0,3.5,30h23a3.5,3.5,0,0,0,3.5-3.5v-23A3.5,3.5,0,0,0,26.5,0Z" style="fill:url(#未命名的渐变_156)"/><path d="M9,29.41C9,7.46,1,7.46,1,7.46v22Z" style="fill:url(#未命名的渐变_155)"/><polyline points="29 7.51 25.83 13.44 22.72 7.46 19.29 13.44 17.05 7.46 14.46 13.44 1 6.72" style="fill:none;stroke-miterlimit:10;stroke:url(#未命名的渐变_126)"/><path d="M1,7.46s8,0,8,22c0,0-.68-11,2.65-11s3.21,11,3.21,11,.13-8,2.13-8,4,2,4,8c0,0,0-6,4-6,2.92,0,3.74,3.22,4,4.94" style="fill:none;stroke-miterlimit:10;stroke:url(#未命名的渐变_102)"/><path d="M26.5,1A2.5,2.5,0,0,1,29,3.46v23A2.5,2.5,0,0,1,26.5,29H3.5A2.5,2.5,0,0,1,1,26.46v-23A2.5,2.5,0,0,1,3.5,1h23m0-1H3.5A3.5,3.5,0,0,0,0,3.46v23A3.5,3.5,0,0,0,3.5,30h23a3.5,3.5,0,0,0,3.5-3.5v-23A3.5,3.5,0,0,0,26.5,0Z" style="fill:url(#未命名的渐变_156)"/></svg>