<svg id="图层_1" data-name="图层 1" xmlns="http://www.w3.org/2000/svg" xmlns:xlink="http://www.w3.org/1999/xlink" viewBox="0 0 44.19 30.01"><defs><linearGradient id="未命名的渐变_156" x1="0.25" y1="15.01" x2="43.94" y2="15.01" gradientUnits="userSpaceOnUse"><stop offset="0.06" stop-color="#666"/><stop offset="0.98" stop-color="#333"/></linearGradient><linearGradient id="未命名的渐变_126" x1="10.56" y1="4.03" x2="11.78" y2="4.03" gradientUnits="userSpaceOnUse"><stop offset="0.12" stop-color="#0384c5"/><stop offset="0.9" stop-color="#0063b1"/></linearGradient><linearGradient id="未命名的渐变_126-2" x1="12.75" y1="4.03" x2="13.97" y2="4.03" xlink:href="#未命名的渐变_126"/><linearGradient id="未命名的渐变_126-3" x1="17.13" y1="4.03" x2="18.35" y2="4.03" xlink:href="#未命名的渐变_126"/><linearGradient id="未命名的渐变_126-4" x1="19.32" y1="4.03" x2="20.54" y2="4.03" xlink:href="#未命名的渐变_126"/><linearGradient id="未命名的渐变_126-5" x1="21.51" y1="4.03" x2="22.73" y2="4.03" xlink:href="#未命名的渐变_126"/><linearGradient id="未命名的渐变_126-6" x1="23.7" y1="4.03" x2="24.92" y2="4.03" xlink:href="#未命名的渐变_126"/><linearGradient id="未命名的渐变_126-7" x1="28.08" y1="4.03" x2="29.3" y2="4.03" xlink:href="#未命名的渐变_126"/><linearGradient id="未命名的渐变_126-8" x1="30.27" y1="4.03" x2="31.49" y2="4.03" xlink:href="#未命名的渐变_126"/><linearGradient id="未命名的渐变_126-9" x1="32.46" y1="4.03" x2="33.68" y2="4.03" xlink:href="#未命名的渐变_126"/><linearGradient id="未命名的渐变_126-10" x1="62.15" y1="-86.12" x2="63.37" y2="-86.12" gradientTransform="translate(-75 -56.49) rotate(90)" xlink:href="#未命名的渐变_126"/><linearGradient id="未命名的渐变_126-11" x1="66.53" y1="-86.12" x2="67.75" y2="-86.12" gradientTransform="translate(-75 -56.49) rotate(90)" xlink:href="#未命名的渐变_126"/><linearGradient id="未命名的渐变_126-12" x1="68.72" y1="-86.12" x2="69.94" y2="-86.12" gradientTransform="translate(-75 -56.49) rotate(90)" xlink:href="#未命名的渐变_126"/><linearGradient id="未命名的渐变_126-13" x1="70.91" y1="-86.12" x2="72.13" y2="-86.12" gradientTransform="translate(-75 -56.49) rotate(90)" xlink:href="#未命名的渐变_126"/><linearGradient id="未命名的渐变_126-14" x1="73.1" y1="-86.12" x2="74.32" y2="-86.12" gradientTransform="translate(-75 -56.49) rotate(90)" xlink:href="#未命名的渐变_126"/><linearGradient id="未命名的渐变_126-15" x1="77.48" y1="-86.12" x2="78.7" y2="-86.12" gradientTransform="translate(-75 -56.49) rotate(90)" xlink:href="#未命名的渐变_126"/><linearGradient id="未命名的渐变_126-16" x1="79.67" y1="-86.12" x2="80.89" y2="-86.12" gradientTransform="translate(-75 -56.49) rotate(90)" xlink:href="#未命名的渐变_126"/><linearGradient id="未命名的渐变_126-17" x1="81.86" y1="-86.12" x2="83.08" y2="-86.12" gradientTransform="translate(-75 -56.49) rotate(90)" xlink:href="#未命名的渐变_126"/><linearGradient id="未命名的渐变_126-18" x1="64.34" y1="-88.36" x2="65.56" y2="-88.36" gradientTransform="translate(-75 -56.49) rotate(90)" xlink:href="#未命名的渐变_126"/><linearGradient id="未命名的渐变_126-19" x1="66.53" y1="-88.36" x2="67.75" y2="-88.36" gradientTransform="translate(-75 -56.49) rotate(90)" xlink:href="#未命名的渐变_126"/><linearGradient id="未命名的渐变_126-20" x1="68.72" y1="-88.36" x2="69.94" y2="-88.36" gradientTransform="translate(-75 -56.49) rotate(90)" xlink:href="#未命名的渐变_126"/><linearGradient id="未命名的渐变_126-21" x1="70.91" y1="-88.36" x2="72.13" y2="-88.36" gradientTransform="translate(-75 -56.49) rotate(90)" xlink:href="#未命名的渐变_126"/><linearGradient id="未命名的渐变_126-22" x1="75.29" y1="-88.36" x2="76.51" y2="-88.36" gradientTransform="translate(-75 -56.49) rotate(90)" xlink:href="#未命名的渐变_126"/><linearGradient id="未命名的渐变_126-23" x1="77.48" y1="-88.36" x2="78.7" y2="-88.36" gradientTransform="translate(-75 -56.49) rotate(90)" xlink:href="#未命名的渐变_126"/><linearGradient id="未命名的渐变_126-24" x1="79.67" y1="-88.36" x2="80.89" y2="-88.36" gradientTransform="translate(-75 -56.49) rotate(90)" xlink:href="#未命名的渐变_126"/><linearGradient id="未命名的渐变_126-25" x1="81.86" y1="-88.36" x2="83.08" y2="-88.36" gradientTransform="translate(-75 -56.49) rotate(90)" xlink:href="#未命名的渐变_126"/><linearGradient id="未命名的渐变_126-26" x1="62.15" y1="-90.55" x2="63.37" y2="-90.55" gradientTransform="translate(-75 -56.49) rotate(90)" xlink:href="#未命名的渐变_126"/><linearGradient id="未命名的渐变_126-27" x1="64.34" y1="-90.55" x2="65.56" y2="-90.55" gradientTransform="translate(-75 -56.49) rotate(90)" xlink:href="#未命名的渐变_126"/><linearGradient id="未命名的渐变_126-28" x1="66.53" y1="-90.55" x2="67.75" y2="-90.55" gradientTransform="translate(-75 -56.49) rotate(90)" xlink:href="#未命名的渐变_126"/><linearGradient id="未命名的渐变_126-29" x1="68.72" y1="-90.55" x2="69.94" y2="-90.55" gradientTransform="translate(-75 -56.49) rotate(90)" xlink:href="#未命名的渐变_126"/><linearGradient id="未命名的渐变_126-30" x1="70.91" y1="-90.55" x2="72.13" y2="-90.55" gradientTransform="translate(-75 -56.49) rotate(90)" xlink:href="#未命名的渐变_126"/><linearGradient id="未命名的渐变_126-31" x1="73.1" y1="-90.55" x2="74.32" y2="-90.55" gradientTransform="translate(-75 -56.49) rotate(90)" xlink:href="#未命名的渐变_126"/><linearGradient id="未命名的渐变_126-32" x1="75.29" y1="-90.55" x2="76.51" y2="-90.55" gradientTransform="translate(-75 -56.49) rotate(90)" xlink:href="#未命名的渐变_126"/><linearGradient id="未命名的渐变_126-33" x1="77.48" y1="-90.55" x2="78.7" y2="-90.55" gradientTransform="translate(-75 -56.49) rotate(90)" xlink:href="#未命名的渐变_126"/><linearGradient id="未命名的渐变_126-34" x1="79.67" y1="-90.55" x2="80.89" y2="-90.55" gradientTransform="translate(-75 -56.49) rotate(90)" xlink:href="#未命名的渐变_126"/><linearGradient id="未命名的渐变_126-35" x1="62.15" y1="-92.74" x2="63.37" y2="-92.74" gradientTransform="translate(-75 -56.49) rotate(90)" xlink:href="#未命名的渐变_126"/><linearGradient id="未命名的渐变_126-36" x1="64.34" y1="-92.74" x2="65.56" y2="-92.74" gradientTransform="translate(-75 -56.49) rotate(90)" xlink:href="#未命名的渐变_126"/><linearGradient id="未命名的渐变_126-37" x1="66.53" y1="-92.74" x2="67.75" y2="-92.74" gradientTransform="translate(-75 -56.49) rotate(90)" xlink:href="#未命名的渐变_126"/><linearGradient id="未命名的渐变_126-38" x1="70.91" y1="-92.74" x2="72.13" y2="-92.74" gradientTransform="translate(-75 -56.49) rotate(90)" xlink:href="#未命名的渐变_126"/><linearGradient id="未命名的渐变_126-39" x1="73.1" y1="-92.74" x2="74.32" y2="-92.74" gradientTransform="translate(-75 -56.49) rotate(90)" xlink:href="#未命名的渐变_126"/><linearGradient id="未命名的渐变_126-40" x1="75.29" y1="-92.74" x2="76.51" y2="-92.74" gradientTransform="translate(-75 -56.49) rotate(90)" xlink:href="#未命名的渐变_126"/><linearGradient id="未命名的渐变_126-41" x1="77.48" y1="-92.74" x2="78.7" y2="-92.74" gradientTransform="translate(-75 -56.49) rotate(90)" xlink:href="#未命名的渐变_126"/><linearGradient id="未命名的渐变_126-42" x1="81.86" y1="-92.74" x2="83.08" y2="-92.74" gradientTransform="translate(-75 -56.49) rotate(90)" xlink:href="#未命名的渐变_126"/><linearGradient id="未命名的渐变_126-43" x1="62.15" y1="-94.93" x2="63.37" y2="-94.93" gradientTransform="translate(-75 -56.49) rotate(90)" xlink:href="#未命名的渐变_126"/><linearGradient id="未命名的渐变_126-44" x1="64.34" y1="-94.93" x2="65.56" y2="-94.93" gradientTransform="translate(-75 -56.49) rotate(90)" xlink:href="#未命名的渐变_126"/><linearGradient id="未命名的渐变_126-45" x1="68.72" y1="-94.93" x2="69.94" y2="-94.93" gradientTransform="translate(-75 -56.49) rotate(90)" xlink:href="#未命名的渐变_126"/><linearGradient id="未命名的渐变_126-46" x1="70.91" y1="-94.93" x2="72.13" y2="-94.93" gradientTransform="translate(-75 -56.49) rotate(90)" xlink:href="#未命名的渐变_126"/><linearGradient id="未命名的渐变_126-47" x1="73.1" y1="-94.93" x2="74.32" y2="-94.93" gradientTransform="translate(-75 -56.49) rotate(90)" xlink:href="#未命名的渐变_126"/><linearGradient id="未命名的渐变_126-48" x1="75.29" y1="-94.93" x2="76.51" y2="-94.93" gradientTransform="translate(-75 -56.49) rotate(90)" xlink:href="#未命名的渐变_126"/><linearGradient id="未命名的渐变_126-49" x1="77.48" y1="-94.93" x2="78.7" y2="-94.93" gradientTransform="translate(-75 -56.49) rotate(90)" xlink:href="#未命名的渐变_126"/><linearGradient id="未命名的渐变_126-50" x1="79.67" y1="-94.93" x2="80.89" y2="-94.93" gradientTransform="translate(-75 -56.49) rotate(90)" xlink:href="#未命名的渐变_126"/><linearGradient id="未命名的渐变_126-51" x1="81.86" y1="-94.93" x2="83.08" y2="-94.93" gradientTransform="translate(-75 -56.49) rotate(90)" xlink:href="#未命名的渐变_126"/><linearGradient id="未命名的渐变_126-52" x1="62.15" y1="-97.12" x2="63.37" y2="-97.12" gradientTransform="translate(-75 -56.49) rotate(90)" xlink:href="#未命名的渐变_126"/><linearGradient id="未命名的渐变_126-53" x1="64.34" y1="-97.12" x2="65.56" y2="-97.12" gradientTransform="translate(-75 -56.49) rotate(90)" xlink:href="#未命名的渐变_126"/><linearGradient id="未命名的渐变_126-54" x1="66.53" y1="-97.12" x2="67.75" y2="-97.12" gradientTransform="translate(-75 -56.49) rotate(90)" xlink:href="#未命名的渐变_126"/><linearGradient id="未命名的渐变_126-55" x1="68.72" y1="-97.12" x2="69.94" y2="-97.12" gradientTransform="translate(-75 -56.49) rotate(90)" xlink:href="#未命名的渐变_126"/><linearGradient id="未命名的渐变_126-56" x1="70.91" y1="-97.12" x2="72.13" y2="-97.12" gradientTransform="translate(-75 -56.49) rotate(90)" xlink:href="#未命名的渐变_126"/><linearGradient id="未命名的渐变_126-57" x1="75.29" y1="-97.12" x2="76.51" y2="-97.12" gradientTransform="translate(-75 -56.49) rotate(90)" xlink:href="#未命名的渐变_126"/><linearGradient id="未命名的渐变_126-58" x1="77.48" y1="-97.12" x2="78.7" y2="-97.12" gradientTransform="translate(-75 -56.49) rotate(90)" xlink:href="#未命名的渐变_126"/><linearGradient id="未命名的渐变_126-59" x1="79.67" y1="-97.12" x2="80.89" y2="-97.12" gradientTransform="translate(-75 -56.49) rotate(90)" xlink:href="#未命名的渐变_126"/><linearGradient id="未命名的渐变_126-60" x1="81.86" y1="-97.12" x2="83.08" y2="-97.12" gradientTransform="translate(-75 -56.49) rotate(90)" xlink:href="#未命名的渐变_126"/><linearGradient id="未命名的渐变_126-61" x1="64.34" y1="-99.31" x2="65.56" y2="-99.31" gradientTransform="translate(-75 -56.49) rotate(90)" xlink:href="#未命名的渐变_126"/><linearGradient id="未命名的渐变_126-62" x1="66.53" y1="-99.31" x2="67.75" y2="-99.31" gradientTransform="translate(-75 -56.49) rotate(90)" xlink:href="#未命名的渐变_126"/><linearGradient id="未命名的渐变_126-63" x1="68.72" y1="-99.31" x2="69.94" y2="-99.31" gradientTransform="translate(-75 -56.49) rotate(90)" xlink:href="#未命名的渐变_126"/><linearGradient id="未命名的渐变_126-64" x1="73.1" y1="-99.31" x2="74.32" y2="-99.31" gradientTransform="translate(-75 -56.49) rotate(90)" xlink:href="#未命名的渐变_126"/><linearGradient id="未命名的渐变_126-65" x1="75.29" y1="-99.31" x2="76.51" y2="-99.31" gradientTransform="translate(-75 -56.49) rotate(90)" xlink:href="#未命名的渐变_126"/><linearGradient id="未命名的渐变_126-66" x1="77.48" y1="-99.31" x2="78.7" y2="-99.31" gradientTransform="translate(-75 -56.49) rotate(90)" xlink:href="#未命名的渐变_126"/><linearGradient id="未命名的渐变_126-67" x1="79.67" y1="-99.31" x2="80.89" y2="-99.31" gradientTransform="translate(-75 -56.49) rotate(90)" xlink:href="#未命名的渐变_126"/><linearGradient id="未命名的渐变_126-68" x1="81.86" y1="-99.31" x2="83.08" y2="-99.31" gradientTransform="translate(-75 -56.49) rotate(90)" xlink:href="#未命名的渐变_126"/><linearGradient id="未命名的渐变_126-69" x1="62.15" y1="-101.5" x2="63.37" y2="-101.5" gradientTransform="translate(-75 -56.49) rotate(90)" xlink:href="#未命名的渐变_126"/><linearGradient id="未命名的渐变_126-70" x1="64.34" y1="-101.5" x2="65.56" y2="-101.5" gradientTransform="translate(-75 -56.49) rotate(90)" xlink:href="#未命名的渐变_126"/><linearGradient id="未命名的渐变_126-71" x1="66.53" y1="-101.5" x2="67.75" y2="-101.5" gradientTransform="translate(-75 -56.49) rotate(90)" xlink:href="#未命名的渐变_126"/><linearGradient id="未命名的渐变_126-72" x1="70.91" y1="-101.5" x2="72.13" y2="-101.5" gradientTransform="translate(-75 -56.49) rotate(90)" xlink:href="#未命名的渐变_126"/><linearGradient id="未命名的渐变_126-73" x1="73.1" y1="-101.5" x2="74.32" y2="-101.5" gradientTransform="translate(-75 -56.49) rotate(90)" xlink:href="#未命名的渐变_126"/><linearGradient id="未命名的渐变_126-74" x1="75.29" y1="-101.5" x2="76.51" y2="-101.5" gradientTransform="translate(-75 -56.49) rotate(90)" xlink:href="#未命名的渐变_126"/><linearGradient id="未命名的渐变_126-75" x1="77.48" y1="-101.5" x2="78.7" y2="-101.5" gradientTransform="translate(-75 -56.49) rotate(90)" xlink:href="#未命名的渐变_126"/><linearGradient id="未命名的渐变_126-76" x1="79.67" y1="-101.5" x2="80.89" y2="-101.5" gradientTransform="translate(-75 -56.49) rotate(90)" xlink:href="#未命名的渐变_126"/><linearGradient id="未命名的渐变_126-77" x1="62.15" y1="-103.69" x2="63.37" y2="-103.69" gradientTransform="translate(-75 -56.49) rotate(90)" xlink:href="#未命名的渐变_126"/><linearGradient id="未命名的渐变_126-78" x1="64.34" y1="-103.69" x2="65.56" y2="-103.69" gradientTransform="translate(-75 -56.49) rotate(90)" xlink:href="#未命名的渐变_126"/><linearGradient id="未命名的渐变_126-79" x1="66.53" y1="-103.69" x2="67.75" y2="-103.69" gradientTransform="translate(-75 -56.49) rotate(90)" xlink:href="#未命名的渐变_126"/><linearGradient id="未命名的渐变_126-80" x1="68.72" y1="-103.69" x2="69.94" y2="-103.69" gradientTransform="translate(-75 -56.49) rotate(90)" xlink:href="#未命名的渐变_126"/><linearGradient id="未命名的渐变_126-81" x1="70.91" y1="-103.69" x2="72.13" y2="-103.69" gradientTransform="translate(-75 -56.49) rotate(90)" xlink:href="#未命名的渐变_126"/><linearGradient id="未命名的渐变_126-82" x1="73.1" y1="-103.69" x2="74.32" y2="-103.69" gradientTransform="translate(-75 -56.49) rotate(90)" xlink:href="#未命名的渐变_126"/><linearGradient id="未命名的渐变_126-83" x1="75.29" y1="-103.69" x2="76.51" y2="-103.69" gradientTransform="translate(-75 -56.49) rotate(90)" xlink:href="#未命名的渐变_126"/><linearGradient id="未命名的渐变_126-84" x1="77.48" y1="-103.69" x2="78.7" y2="-103.69" gradientTransform="translate(-75 -56.49) rotate(90)" xlink:href="#未命名的渐变_126"/><linearGradient id="未命名的渐变_126-85" x1="81.86" y1="-103.69" x2="83.08" y2="-103.69" gradientTransform="translate(-75 -56.49) rotate(90)" xlink:href="#未命名的渐变_126"/><linearGradient id="未命名的渐变_126-86" x1="62.15" y1="-105.88" x2="63.37" y2="-105.88" gradientTransform="translate(-75 -56.49) rotate(90)" xlink:href="#未命名的渐变_126"/><linearGradient id="未命名的渐变_126-87" x1="66.53" y1="-105.88" x2="67.75" y2="-105.88" gradientTransform="translate(-75 -56.49) rotate(90)" xlink:href="#未命名的渐变_126"/><linearGradient id="未命名的渐变_126-88" x1="68.72" y1="-105.88" x2="69.94" y2="-105.88" gradientTransform="translate(-75 -56.49) rotate(90)" xlink:href="#未命名的渐变_126"/><linearGradient id="未命名的渐变_126-89" x1="70.91" y1="-105.88" x2="72.13" y2="-105.88" gradientTransform="translate(-75 -56.49) rotate(90)" xlink:href="#未命名的渐变_126"/><linearGradient id="未命名的渐变_126-90" x1="73.1" y1="-105.88" x2="74.32" y2="-105.88" gradientTransform="translate(-75 -56.49) rotate(90)" xlink:href="#未命名的渐变_126"/><linearGradient id="未命名的渐变_126-91" x1="75.29" y1="-105.88" x2="76.51" y2="-105.88" gradientTransform="translate(-75 -56.49) rotate(90)" xlink:href="#未命名的渐变_126"/><linearGradient id="未命名的渐变_126-92" x1="79.67" y1="-105.88" x2="80.89" y2="-105.88" gradientTransform="translate(-75 -56.49) rotate(90)" xlink:href="#未命名的渐变_126"/><linearGradient id="未命名的渐变_126-93" x1="81.86" y1="-105.88" x2="83.08" y2="-105.88" gradientTransform="translate(-75 -56.49) rotate(90)" xlink:href="#未命名的渐变_126"/><linearGradient id="未命名的渐变_126-94" x1="62.15" y1="-108.07" x2="63.37" y2="-108.07" gradientTransform="translate(-75 -56.49) rotate(90)" xlink:href="#未命名的渐变_126"/><linearGradient id="未命名的渐变_126-95" x1="66.53" y1="-108.07" x2="67.75" y2="-108.07" gradientTransform="translate(-75 -56.49) rotate(90)" xlink:href="#未命名的渐变_126"/><linearGradient id="未命名的渐变_126-96" x1="68.72" y1="-108.07" x2="69.94" y2="-108.07" gradientTransform="translate(-75 -56.49) rotate(90)" xlink:href="#未命名的渐变_126"/><linearGradient id="未命名的渐变_126-97" x1="70.91" y1="-108.07" x2="72.13" y2="-108.07" gradientTransform="translate(-75 -56.49) rotate(90)" xlink:href="#未命名的渐变_126"/><linearGradient id="未命名的渐变_126-98" x1="73.1" y1="-108.07" x2="74.32" y2="-108.07" gradientTransform="translate(-75 -56.49) rotate(90)" xlink:href="#未命名的渐变_126"/><linearGradient id="未命名的渐变_126-99" x1="77.48" y1="-108.07" x2="78.7" y2="-108.07" gradientTransform="translate(-75 -56.49) rotate(90)" xlink:href="#未命名的渐变_126"/><linearGradient id="未命名的渐变_126-100" x1="79.67" y1="-108.07" x2="80.89" y2="-108.07" gradientTransform="translate(-75 -56.49) rotate(90)" xlink:href="#未命名的渐变_126"/><linearGradient id="未命名的渐变_126-101" x1="81.86" y1="-108.07" x2="83.08" y2="-108.07" gradientTransform="translate(-75 -56.49) rotate(90)" xlink:href="#未命名的渐变_126"/></defs><rect x="0.5" y="0.5" width="43.19" height="29.01" rx="2" style="fill:#f7f7f7;stroke-miterlimit:10;stroke-width:0.5px;stroke:url(#未命名的渐变_156)"/><rect x="0.5" y="0.5" width="43.19" height="29.01" rx="2" style="fill:none;stroke-miterlimit:10;stroke-width:0.5px;stroke:url(#未命名的渐变_156)"/><circle cx="11.17" cy="4.03" r="0.61" style="fill:url(#未命名的渐变_126)"/><circle cx="13.36" cy="4.03" r="0.61" style="fill:url(#未命名的渐变_126-2)"/><circle cx="17.74" cy="4.03" r="0.61" style="fill:url(#未命名的渐变_126-3)"/><circle cx="19.93" cy="4.03" r="0.61" style="fill:url(#未命名的渐变_126-4)"/><circle cx="22.12" cy="4.03" r="0.61" style="fill:url(#未命名的渐变_126-5)"/><circle cx="24.31" cy="4.03" r="0.61" style="fill:url(#未命名的渐变_126-6)"/><circle cx="28.69" cy="4.03" r="0.61" style="fill:url(#未命名的渐变_126-7)"/><circle cx="30.88" cy="4.03" r="0.61" style="fill:url(#未命名的渐变_126-8)"/><circle cx="33.07" cy="4.03" r="0.61" style="fill:url(#未命名的渐变_126-9)"/><circle cx="11.12" cy="6.27" r="0.61" style="fill:url(#未命名的渐变_126-10)"/><circle cx="11.12" cy="10.65" r="0.61" style="fill:url(#未命名的渐变_126-11)"/><circle cx="11.12" cy="12.84" r="0.61" style="fill:url(#未命名的渐变_126-12)"/><circle cx="11.12" cy="15.03" r="0.61" style="fill:url(#未命名的渐变_126-13)"/><circle cx="11.12" cy="17.22" r="0.61" style="fill:url(#未命名的渐变_126-14)"/><circle cx="11.12" cy="21.6" r="0.61" style="fill:url(#未命名的渐变_126-15)"/><circle cx="11.12" cy="23.79" r="0.61" style="fill:url(#未命名的渐变_126-16)"/><circle cx="11.12" cy="25.98" r="0.61" style="fill:url(#未命名的渐变_126-17)"/><circle cx="13.36" cy="8.46" r="0.61" style="fill:url(#未命名的渐变_126-18)"/><circle cx="13.36" cy="10.65" r="0.61" style="fill:url(#未命名的渐变_126-19)"/><circle cx="13.36" cy="12.84" r="0.61" style="fill:url(#未命名的渐变_126-20)"/><circle cx="13.36" cy="15.03" r="0.61" style="fill:url(#未命名的渐变_126-21)"/><circle cx="13.36" cy="19.41" r="0.61" style="fill:url(#未命名的渐变_126-22)"/><circle cx="13.36" cy="21.6" r="0.61" style="fill:url(#未命名的渐变_126-23)"/><circle cx="13.36" cy="23.79" r="0.61" style="fill:url(#未命名的渐变_126-24)"/><circle cx="13.36" cy="25.98" r="0.61" style="fill:url(#未命名的渐变_126-25)"/><circle cx="15.55" cy="6.27" r="0.61" style="fill:url(#未命名的渐变_126-26)"/><circle cx="15.55" cy="8.46" r="0.61" style="fill:url(#未命名的渐变_126-27)"/><circle cx="15.55" cy="10.65" r="0.61" style="fill:url(#未命名的渐变_126-28)"/><circle cx="15.55" cy="12.84" r="0.61" style="fill:url(#未命名的渐变_126-29)"/><circle cx="15.55" cy="15.03" r="0.61" style="fill:url(#未命名的渐变_126-30)"/><circle cx="15.55" cy="17.22" r="0.61" style="fill:url(#未命名的渐变_126-31)"/><circle cx="15.55" cy="19.41" r="0.61" style="fill:url(#未命名的渐变_126-32)"/><circle cx="15.55" cy="21.6" r="0.61" style="fill:url(#未命名的渐变_126-33)"/><circle cx="15.55" cy="23.79" r="0.61" style="fill:url(#未命名的渐变_126-34)"/><circle cx="17.74" cy="6.27" r="0.61" style="fill:url(#未命名的渐变_126-35)"/><circle cx="17.74" cy="8.46" r="0.61" style="fill:url(#未命名的渐变_126-36)"/><circle cx="17.74" cy="10.65" r="0.61" style="fill:url(#未命名的渐变_126-37)"/><circle cx="17.74" cy="15.03" r="0.61" style="fill:url(#未命名的渐变_126-38)"/><circle cx="17.74" cy="17.22" r="0.61" style="fill:url(#未命名的渐变_126-39)"/><circle cx="17.74" cy="19.41" r="0.61" style="fill:url(#未命名的渐变_126-40)"/><circle cx="17.74" cy="21.6" r="0.61" style="fill:url(#未命名的渐变_126-41)"/><circle cx="17.74" cy="25.98" r="0.61" style="fill:url(#未命名的渐变_126-42)"/><circle cx="19.93" cy="6.27" r="0.61" style="fill:url(#未命名的渐变_126-43)"/><circle cx="19.93" cy="8.46" r="0.61" style="fill:url(#未命名的渐变_126-44)"/><circle cx="19.93" cy="12.84" r="0.61" style="fill:url(#未命名的渐变_126-45)"/><circle cx="19.93" cy="15.03" r="0.61" style="fill:url(#未命名的渐变_126-46)"/><circle cx="19.93" cy="17.22" r="0.61" style="fill:url(#未命名的渐变_126-47)"/><circle cx="19.93" cy="19.41" r="0.61" style="fill:url(#未命名的渐变_126-48)"/><circle cx="19.93" cy="21.6" r="0.61" style="fill:url(#未命名的渐变_126-49)"/><circle cx="19.93" cy="23.79" r="0.61" style="fill:url(#未命名的渐变_126-50)"/><circle cx="19.93" cy="25.98" r="0.61" style="fill:url(#未命名的渐变_126-51)"/><circle cx="22.12" cy="6.27" r="0.61" style="fill:url(#未命名的渐变_126-52)"/><circle cx="22.12" cy="8.46" r="0.61" style="fill:url(#未命名的渐变_126-53)"/><circle cx="22.12" cy="10.65" r="0.61" style="fill:url(#未命名的渐变_126-54)"/><circle cx="22.12" cy="12.84" r="0.61" style="fill:url(#未命名的渐变_126-55)"/><circle cx="22.12" cy="15.03" r="0.61" style="fill:url(#未命名的渐变_126-56)"/><circle cx="22.12" cy="19.41" r="0.61" style="fill:url(#未命名的渐变_126-57)"/><circle cx="22.12" cy="21.6" r="0.61" style="fill:url(#未命名的渐变_126-58)"/><circle cx="22.12" cy="23.79" r="0.61" style="fill:url(#未命名的渐变_126-59)"/><circle cx="22.12" cy="25.98" r="0.61" style="fill:url(#未命名的渐变_126-60)"/><circle cx="24.31" cy="8.46" r="0.61" style="fill:url(#未命名的渐变_126-61)"/><circle cx="24.31" cy="10.65" r="0.61" style="fill:url(#未命名的渐变_126-62)"/><circle cx="24.31" cy="12.84" r="0.61" style="fill:url(#未命名的渐变_126-63)"/><circle cx="24.31" cy="17.22" r="0.61" style="fill:url(#未命名的渐变_126-64)"/><circle cx="24.31" cy="19.41" r="0.61" style="fill:url(#未命名的渐变_126-65)"/><circle cx="24.31" cy="21.6" r="0.61" style="fill:url(#未命名的渐变_126-66)"/><circle cx="24.31" cy="23.79" r="0.61" style="fill:url(#未命名的渐变_126-67)"/><circle cx="24.31" cy="25.98" r="0.61" style="fill:url(#未命名的渐变_126-68)"/><circle cx="26.5" cy="6.27" r="0.61" style="fill:url(#未命名的渐变_126-69)"/><circle cx="26.5" cy="8.46" r="0.61" style="fill:url(#未命名的渐变_126-70)"/><circle cx="26.5" cy="10.65" r="0.61" style="fill:url(#未命名的渐变_126-71)"/><circle cx="26.5" cy="15.03" r="0.61" style="fill:url(#未命名的渐变_126-72)"/><circle cx="26.5" cy="17.22" r="0.61" style="fill:url(#未命名的渐变_126-73)"/><circle cx="26.5" cy="19.41" r="0.61" style="fill:url(#未命名的渐变_126-74)"/><circle cx="26.5" cy="21.6" r="0.61" style="fill:url(#未命名的渐变_126-75)"/><circle cx="26.5" cy="23.79" r="0.61" style="fill:url(#未命名的渐变_126-76)"/><circle cx="28.69" cy="6.27" r="0.61" style="fill:url(#未命名的渐变_126-77)"/><circle cx="28.69" cy="8.46" r="0.61" style="fill:url(#未命名的渐变_126-78)"/><circle cx="28.69" cy="10.65" r="0.61" style="fill:url(#未命名的渐变_126-79)"/><circle cx="28.69" cy="12.84" r="0.61" style="fill:url(#未命名的渐变_126-80)"/><circle cx="28.69" cy="15.03" r="0.61" style="fill:url(#未命名的渐变_126-81)"/><circle cx="28.69" cy="17.22" r="0.61" style="fill:url(#未命名的渐变_126-82)"/><circle cx="28.69" cy="19.41" r="0.61" style="fill:url(#未命名的渐变_126-83)"/><circle cx="28.69" cy="21.6" r="0.61" style="fill:url(#未命名的渐变_126-84)"/><circle cx="28.69" cy="25.98" r="0.61" style="fill:url(#未命名的渐变_126-85)"/><circle cx="30.88" cy="6.27" r="0.61" style="fill:url(#未命名的渐变_126-86)"/><circle cx="30.88" cy="10.65" r="0.61" style="fill:url(#未命名的渐变_126-87)"/><circle cx="30.88" cy="12.84" r="0.61" style="fill:url(#未命名的渐变_126-88)"/><circle cx="30.88" cy="15.03" r="0.61" style="fill:url(#未命名的渐变_126-89)"/><circle cx="30.88" cy="17.22" r="0.61" style="fill:url(#未命名的渐变_126-90)"/><circle cx="30.88" cy="19.41" r="0.61" style="fill:url(#未命名的渐变_126-91)"/><circle cx="30.88" cy="23.79" r="0.61" style="fill:url(#未命名的渐变_126-92)"/><circle cx="30.88" cy="25.98" r="0.61" style="fill:url(#未命名的渐变_126-93)"/><circle cx="33.07" cy="6.27" r="0.61" style="fill:url(#未命名的渐变_126-94)"/><circle cx="33.07" cy="10.65" r="0.61" style="fill:url(#未命名的渐变_126-95)"/><circle cx="33.07" cy="12.84" r="0.61" style="fill:url(#未命名的渐变_126-96)"/><circle cx="33.07" cy="15.03" r="0.61" style="fill:url(#未命名的渐变_126-97)"/><circle cx="33.07" cy="17.22" r="0.61" style="fill:url(#未命名的渐变_126-98)"/><circle cx="33.07" cy="21.6" r="0.61" style="fill:url(#未命名的渐变_126-99)"/><circle cx="33.07" cy="23.79" r="0.61" style="fill:url(#未命名的渐变_126-100)"/><circle cx="33.07" cy="25.98" r="0.61" style="fill:url(#未命名的渐变_126-101)"/></svg>