<svg id="图层_1" data-name="图层 1" xmlns="http://www.w3.org/2000/svg" xmlns:xlink="http://www.w3.org/1999/xlink" viewBox="0 0 44.19 30.01"><defs><linearGradient id="未命名的渐变_156" x1="0.25" y1="15.01" x2="43.94" y2="15.01" gradientUnits="userSpaceOnUse"><stop offset="0.06" stop-color="#666"/><stop offset="0.98" stop-color="#333"/></linearGradient><linearGradient id="未命名的渐变_126" x1="8.19" y1="22.55" x2="10.55" y2="22.55" gradientUnits="userSpaceOnUse"><stop offset="0.12" stop-color="#0384c5"/><stop offset="0.9" stop-color="#0063b1"/></linearGradient><linearGradient id="未命名的渐变_126-2" x1="12.43" y1="20.03" x2="14.79" y2="20.03" xlink:href="#未命名的渐变_126"/><linearGradient id="未命名的渐变_126-3" x1="16.68" y1="17.52" x2="19.03" y2="17.52" xlink:href="#未命名的渐变_126"/><linearGradient id="未命名的渐变_126-4" x1="20.92" y1="15.01" x2="23.27" y2="15.01" xlink:href="#未命名的渐变_126"/><linearGradient id="未命名的渐变_126-5" x1="25.16" y1="12.49" x2="27.52" y2="12.49" xlink:href="#未命名的渐变_126"/><linearGradient id="未命名的渐变_126-6" x1="29.4" y1="9.98" x2="31.76" y2="9.98" xlink:href="#未命名的渐变_126"/><linearGradient id="未命名的渐变_126-7" x1="33.64" y1="7.46" x2="36" y2="7.46" xlink:href="#未命名的渐变_126"/></defs><rect x="0.5" y="0.5" width="43.19" height="29.01" rx="2" style="fill:#f7f7f7;stroke-miterlimit:10;stroke-width:0.5px;stroke:url(#未命名的渐变_156)"/><rect x="0.5" y="0.5" width="43.19" height="29.01" rx="2" style="fill:none;stroke-miterlimit:10;stroke-width:0.5px;stroke:url(#未命名的渐变_156)"/><circle cx="9.37" cy="22.55" r="1.18" style="fill:url(#未命名的渐变_126)"/><circle cx="13.61" cy="20.03" r="1.18" style="fill:url(#未命名的渐变_126-2)"/><circle cx="17.85" cy="17.52" r="1.18" style="fill:url(#未命名的渐变_126-3)"/><circle cx="22.1" cy="15.01" r="1.18" style="fill:url(#未命名的渐变_126-4)"/><circle cx="26.34" cy="12.49" r="1.18" style="fill:url(#未命名的渐变_126-5)"/><circle cx="30.58" cy="9.98" r="1.18" style="fill:url(#未命名的渐变_126-6)"/><circle cx="34.82" cy="7.46" r="1.18" style="fill:url(#未命名的渐变_126-7)"/></svg>